<svg width="292" height="86" viewBox="0 0 292 86" fill="none" xmlns="http://www.w3.org/2000/svg">
<g filter="url(#filter0_d_11_1379)">
<path d="M81.8027 51.677C76.4596 73.1057 54.7536 86.147 33.3201 80.8032C11.8953 75.4607 -1.14737 53.7557 4.1982 32.3282C9.53877 10.897 31.2449 -2.1455 52.6721 3.197C74.1044 8.5395 87.1458 30.247 81.8027 51.677Z" fill="#F7931A"/>
<path d="M60.6379 36.3018C61.4342 30.9793 57.3813 28.118 51.8395 26.2093L53.6372 18.9992L49.248 17.9055L47.4978 24.9255C46.3439 24.638 45.1588 24.3668 43.9811 24.098L45.7438 17.0317L41.3571 15.938L39.5582 23.1455C38.6031 22.928 37.6655 22.713 36.7554 22.4868L36.7604 22.4642L30.7073 20.953L29.5396 25.6405C29.5396 25.6405 32.7962 26.3867 32.7275 26.433C34.5052 26.8767 34.8264 28.053 34.7727 28.9855L32.7249 37.1992C32.8475 37.2305 33.0063 37.2755 33.1813 37.3455C33.035 37.3092 32.8787 37.2692 32.7175 37.2305L29.8471 48.7368C29.6296 49.2768 29.0783 50.0867 27.8357 49.7792C27.8795 49.843 24.6454 48.983 24.6454 48.983L22.4664 54.0068L28.1782 55.4305C29.2408 55.6967 30.2822 55.9755 31.3073 56.238L29.4909 63.5305L33.8751 64.6242L35.674 57.4092C36.8716 57.7342 38.0343 58.0343 39.1719 58.3168L37.3792 65.498L41.7684 66.5917L43.5849 59.313C51.0694 60.7292 56.6975 60.158 59.0665 53.3892C60.9755 47.9392 58.9715 44.7955 55.0336 42.7455C57.9014 42.0843 60.0616 40.198 60.6379 36.3018ZM50.6093 50.363C49.253 55.813 40.0757 52.8667 37.1004 52.128L39.5107 42.4667C42.486 43.2092 52.027 44.6792 50.6093 50.363ZM51.967 36.223C50.7294 41.1805 43.091 38.6617 40.6133 38.0442L42.7985 29.2818C45.2763 29.8993 53.2559 31.0517 51.967 36.223Z" fill="white"/>
</g>
<path d="M130.034 65V30.0909H144.011C146.58 30.0909 148.722 30.4716 150.438 31.233C152.153 31.9943 153.443 33.0511 154.307 34.4034C155.17 35.7443 155.602 37.2898 155.602 39.0398C155.602 40.4034 155.33 41.6023 154.784 42.6364C154.239 43.6591 153.489 44.5 152.534 45.1591C151.591 45.8068 150.511 46.267 149.295 46.5398V46.8807C150.625 46.9375 151.869 47.3125 153.028 48.0057C154.199 48.6989 155.148 49.6705 155.875 50.9205C156.602 52.1591 156.966 53.6364 156.966 55.3523C156.966 57.2045 156.506 58.858 155.585 60.3125C154.676 61.7557 153.33 62.8977 151.545 63.7386C149.761 64.5795 147.563 65 144.949 65H130.034ZM137.415 58.9659H143.432C145.489 58.9659 146.989 58.5739 147.932 57.7898C148.875 56.9943 149.347 55.9375 149.347 54.6193C149.347 53.6534 149.114 52.8011 148.648 52.0625C148.182 51.3239 147.517 50.7443 146.653 50.3239C145.801 49.9034 144.784 49.6932 143.602 49.6932H137.415V58.9659ZM137.415 44.6989H142.886C143.898 44.6989 144.795 44.5227 145.58 44.1705C146.375 43.8068 147 43.2955 147.455 42.6364C147.92 41.9773 148.153 41.1875 148.153 40.267C148.153 39.0057 147.705 37.9886 146.807 37.2159C145.92 36.4432 144.659 36.0568 143.023 36.0568H137.415V44.6989ZM161.632 65V38.8182H168.893V65H161.632ZM165.28 35.4432C164.2 35.4432 163.274 35.0852 162.501 34.3693C161.74 33.642 161.359 32.7727 161.359 31.7614C161.359 30.7614 161.74 29.9034 162.501 29.1875C163.274 28.4602 164.2 28.0966 165.28 28.0966C166.359 28.0966 167.28 28.4602 168.041 29.1875C168.814 29.9034 169.2 30.7614 169.2 31.7614C169.2 32.7727 168.814 33.642 168.041 34.3693C167.28 35.0852 166.359 35.4432 165.28 35.4432ZM188.636 38.8182V44.2727H172.869V38.8182H188.636ZM176.449 32.5455H183.71V56.9545C183.71 57.625 183.813 58.1477 184.017 58.5227C184.222 58.8864 184.506 59.142 184.869 59.2898C185.244 59.4375 185.676 59.5114 186.165 59.5114C186.506 59.5114 186.847 59.483 187.188 59.4261C187.528 59.358 187.79 59.3068 187.972 59.2727L189.114 64.6761C188.75 64.7898 188.239 64.9205 187.58 65.0682C186.92 65.2273 186.119 65.3239 185.176 65.358C183.426 65.4261 181.892 65.1932 180.574 64.6591C179.267 64.125 178.25 63.2955 177.523 62.1705C176.795 61.0455 176.438 59.625 176.449 57.9091V32.5455ZM204.915 65.5114C202.233 65.5114 199.926 64.9432 197.994 63.8068C196.074 62.6591 194.597 61.0682 193.562 59.0341C192.54 57 192.028 54.6591 192.028 52.0114C192.028 49.3295 192.545 46.9773 193.58 44.9545C194.625 42.9205 196.108 41.3352 198.028 40.1989C199.949 39.0511 202.233 38.4773 204.881 38.4773C207.165 38.4773 209.165 38.892 210.881 39.7216C212.597 40.5511 213.955 41.7159 214.955 43.2159C215.955 44.7159 216.506 46.4773 216.608 48.5H209.756C209.563 47.1932 209.051 46.142 208.222 45.3466C207.403 44.5398 206.33 44.1364 205 44.1364C203.875 44.1364 202.892 44.4432 202.051 45.0568C201.222 45.6591 200.574 46.5398 200.108 47.6989C199.642 48.858 199.409 50.2614 199.409 51.9091C199.409 53.5795 199.636 55 200.091 56.1705C200.557 57.3409 201.21 58.233 202.051 58.8466C202.892 59.4602 203.875 59.767 205 59.767C205.83 59.767 206.574 59.5966 207.233 59.2557C207.903 58.9148 208.455 58.4205 208.886 57.7727C209.33 57.1136 209.619 56.3239 209.756 55.4034H216.608C216.494 57.4034 215.949 59.1648 214.972 60.6875C214.006 62.1989 212.67 63.3807 210.966 64.233C209.261 65.0852 207.244 65.5114 204.915 65.5114ZM233.087 65.5114C230.439 65.5114 228.149 64.9489 226.217 63.8239C224.297 62.6875 222.814 61.108 221.768 59.0852C220.723 57.0511 220.2 54.6932 220.2 52.0114C220.2 49.3068 220.723 46.9432 221.768 44.9205C222.814 42.8864 224.297 41.3068 226.217 40.1818C228.149 39.0455 230.439 38.4773 233.087 38.4773C235.734 38.4773 238.018 39.0455 239.939 40.1818C241.871 41.3068 243.359 42.8864 244.405 44.9205C245.45 46.9432 245.973 49.3068 245.973 52.0114C245.973 54.6932 245.45 57.0511 244.405 59.0852C243.359 61.108 241.871 62.6875 239.939 63.8239C238.018 64.9489 235.734 65.5114 233.087 65.5114ZM233.121 59.8864C234.325 59.8864 235.331 59.5455 236.138 58.8636C236.945 58.1705 237.553 57.2273 237.962 56.0341C238.382 54.8409 238.592 53.483 238.592 51.9602C238.592 50.4375 238.382 49.0795 237.962 47.8864C237.553 46.6932 236.945 45.75 236.138 45.0568C235.331 44.3636 234.325 44.017 233.121 44.017C231.905 44.017 230.882 44.3636 230.053 45.0568C229.234 45.75 228.615 46.6932 228.195 47.8864C227.786 49.0795 227.581 50.4375 227.581 51.9602C227.581 53.483 227.786 54.8409 228.195 56.0341C228.615 57.2273 229.234 58.1705 230.053 58.8636C230.882 59.5455 231.905 59.8864 233.121 59.8864ZM250.695 65V38.8182H257.956V65H250.695ZM254.342 35.4432C253.263 35.4432 252.337 35.0852 251.564 34.3693C250.803 33.642 250.422 32.7727 250.422 31.7614C250.422 30.7614 250.803 29.9034 251.564 29.1875C252.337 28.4602 253.263 28.0966 254.342 28.0966C255.422 28.0966 256.342 28.4602 257.104 29.1875C257.876 29.9034 258.263 30.7614 258.263 31.7614C258.263 32.7727 257.876 33.642 257.104 34.3693C256.342 35.0852 255.422 35.4432 254.342 35.4432ZM271.034 49.8636V65H263.773V38.8182H270.693V43.4375H271C271.58 41.9148 272.551 40.7102 273.915 39.8239C275.278 38.9261 276.932 38.4773 278.875 38.4773C280.693 38.4773 282.278 38.875 283.631 39.6705C284.983 40.4659 286.034 41.6023 286.784 43.0795C287.534 44.5455 287.909 46.2955 287.909 48.3295V65H280.648V49.625C280.659 48.0227 280.25 46.7727 279.42 45.875C278.591 44.9659 277.449 44.5114 275.994 44.5114C275.017 44.5114 274.153 44.7216 273.403 45.142C272.665 45.5625 272.085 46.1761 271.665 46.983C271.256 47.7784 271.045 48.7386 271.034 49.8636Z" fill="white"/>
<defs>
<filter id="filter0_d_11_1379" x="0" y="0" width="86" height="86.0008" filterUnits="userSpaceOnUse" color-interpolation-filters="sRGB">
<feFlood flood-opacity="0" result="BackgroundImageFix"/>
<feColorMatrix in="SourceAlpha" type="matrix" values="0 0 0 0 0 0 0 0 0 0 0 0 0 0 0 0 0 0 127 0" result="hardAlpha"/>
<feOffset dy="1"/>
<feGaussianBlur stdDeviation="1.5"/>
<feColorMatrix type="matrix" values="0 0 0 0 0.129412 0 0 0 0 0.105882 0 0 0 0 0.305882 0 0 0 0.15 0"/>
<feBlend mode="normal" in2="BackgroundImageFix" result="effect1_dropShadow_11_1379"/>
<feBlend mode="normal" in="SourceGraphic" in2="effect1_dropShadow_11_1379" result="shape"/>
</filter>
</defs>
</svg>
