<svg width="289" height="81" viewBox="0 0 289 81" fill="none" xmlns="http://www.w3.org/2000/svg">
<path d="M127.034 63V28.0909H141.011C143.58 28.0909 145.722 28.4716 147.438 29.233C149.153 29.9943 150.443 31.0511 151.307 32.4034C152.17 33.7443 152.602 35.2898 152.602 37.0398C152.602 38.4034 152.33 39.6023 151.784 40.6364C151.239 41.6591 150.489 42.5 149.534 43.1591C148.591 43.8068 147.511 44.267 146.295 44.5398V44.8807C147.625 44.9375 148.869 45.3125 150.028 46.0057C151.199 46.6989 152.148 47.6705 152.875 48.9205C153.602 50.1591 153.966 51.6364 153.966 53.3523C153.966 55.2045 153.506 56.858 152.585 58.3125C151.676 59.7557 150.33 60.8977 148.545 61.7386C146.761 62.5795 144.563 63 141.949 63H127.034ZM134.415 56.9659H140.432C142.489 56.9659 143.989 56.5739 144.932 55.7898C145.875 54.9943 146.347 53.9375 146.347 52.6193C146.347 51.6534 146.114 50.8011 145.648 50.0625C145.182 49.3239 144.517 48.7443 143.653 48.3239C142.801 47.9034 141.784 47.6932 140.602 47.6932H134.415V56.9659ZM134.415 42.6989H139.886C140.898 42.6989 141.795 42.5227 142.58 42.1705C143.375 41.8068 144 41.2955 144.455 40.6364C144.92 39.9773 145.153 39.1875 145.153 38.267C145.153 37.0057 144.705 35.9886 143.807 35.2159C142.92 34.4432 141.659 34.0568 140.023 34.0568H134.415V42.6989ZM180.331 28.0909H187.712V50.7614C187.712 53.3068 187.104 55.5341 185.888 57.4432C184.683 59.3523 182.996 60.8409 180.825 61.9091C178.655 62.9659 176.126 63.4943 173.24 63.4943C170.342 63.4943 167.808 62.9659 165.638 61.9091C163.467 60.8409 161.78 59.3523 160.575 57.4432C159.371 55.5341 158.768 53.3068 158.768 50.7614V28.0909H166.149V50.1307C166.149 51.4602 166.439 52.642 167.018 53.6761C167.609 54.7102 168.439 55.5227 169.507 56.1136C170.575 56.7045 171.82 57 173.24 57C174.672 57 175.916 56.7045 176.973 56.1136C178.041 55.5227 178.865 54.7102 179.445 53.6761C180.036 52.642 180.331 51.4602 180.331 50.1307V28.0909ZM212.722 38.1307C212.585 36.7557 212 35.6875 210.966 34.9261C209.932 34.1648 208.528 33.7841 206.756 33.7841C205.551 33.7841 204.534 33.9545 203.705 34.2955C202.875 34.625 202.239 35.0852 201.795 35.6761C201.364 36.267 201.148 36.9375 201.148 37.6875C201.125 38.3125 201.256 38.858 201.54 39.3239C201.835 39.7898 202.239 40.1932 202.75 40.5341C203.261 40.8636 203.852 41.1534 204.523 41.4034C205.193 41.642 205.909 41.8466 206.67 42.017L209.807 42.767C211.33 43.108 212.727 43.5625 214 44.1307C215.273 44.6989 216.375 45.3977 217.307 46.2273C218.239 47.0568 218.96 48.0341 219.472 49.1591C219.994 50.2841 220.261 51.5739 220.273 53.0284C220.261 55.1648 219.716 57.017 218.636 58.5852C217.568 60.142 216.023 61.3523 214 62.2159C211.989 63.0682 209.563 63.4943 206.722 63.4943C203.903 63.4943 201.449 63.0625 199.358 62.1989C197.278 61.3352 195.653 60.0568 194.483 58.3636C193.324 56.6591 192.716 54.5511 192.659 52.0398H199.801C199.881 53.2102 200.216 54.1875 200.807 54.9716C201.409 55.7443 202.21 56.3295 203.21 56.7273C204.222 57.1136 205.364 57.3068 206.636 57.3068C207.886 57.3068 208.972 57.125 209.892 56.7614C210.824 56.3977 211.545 55.892 212.057 55.2443C212.568 54.5966 212.824 53.8523 212.824 53.0114C212.824 52.2273 212.591 51.5682 212.125 51.0341C211.67 50.5 211 50.0455 210.114 49.6705C209.239 49.2955 208.165 48.9545 206.892 48.6477L203.091 47.6932C200.148 46.9773 197.824 45.858 196.119 44.3352C194.415 42.8125 193.568 40.7614 193.58 38.1818C193.568 36.0682 194.131 34.2216 195.267 32.642C196.415 31.0625 197.989 29.8295 199.989 28.9432C201.989 28.0568 204.261 27.6136 206.807 27.6136C209.398 27.6136 211.659 28.0568 213.591 28.9432C215.534 29.8295 217.045 31.0625 218.125 32.642C219.205 34.2216 219.761 36.0511 219.795 38.1307H212.722ZM237.612 63H225.237V28.0909H237.714C241.226 28.0909 244.249 28.7898 246.783 30.1875C249.317 31.5739 251.266 33.5682 252.629 36.1705C254.004 38.7727 254.692 41.8864 254.692 45.5114C254.692 49.1477 254.004 52.2727 252.629 54.8864C251.266 57.5 249.305 59.5057 246.749 60.9034C244.203 62.3011 241.158 63 237.612 63ZM232.618 56.6761H237.305C239.487 56.6761 241.322 56.2898 242.811 55.517C244.311 54.733 245.436 53.5227 246.186 51.8864C246.947 50.2386 247.328 48.1136 247.328 45.5114C247.328 42.9318 246.947 40.8239 246.186 39.1875C245.436 37.5511 244.317 36.3466 242.828 35.5739C241.339 34.8011 239.504 34.4148 237.322 34.4148H232.618V56.6761Z" fill="white"/>
<g clip-path="url(#clip0_11_1383)">
<path d="M39.9988 0.168823L49.8677 10.2755L25.017 35.1262L15.1481 25.2573L39.9988 0.168823Z" fill="#F0B90B" stroke="#F0B90B"/>
<path d="M54.9805 15.1505L64.8494 25.2572L25.017 65.0896L15.1481 55.2207L54.9805 15.1505Z" fill="#F0B90B" stroke="#F0B90B"/>
<path d="M10.0354 30.1323L19.9043 40.239L10.0354 50.1079L0.166443 40.239L10.0354 30.1323Z" fill="#F0B90B" stroke="#F0B90B"/>
<path d="M69.9622 30.1323L79.8311 40.239L39.9988 80.0713L30.1299 70.2024L69.9622 30.1323Z" fill="#F0B90B" stroke="#F0B90B"/>
</g>
<defs>
<clipPath id="clip0_11_1383">
<rect width="80" height="80.2402" fill="white"/>
</clipPath>
</defs>
</svg>
