<svg width="289" height="80" viewBox="0 0 289 80" fill="none" xmlns="http://www.w3.org/2000/svg">
<path d="M127.034 63V28.0909H150.557V34.1761H134.415V42.4943H149.347V48.5795H134.415V56.9148H150.625V63H127.034ZM177.987 28.0909H185.368V50.7614C185.368 53.3068 184.76 55.5341 183.544 57.4432C182.339 59.3523 180.652 60.8409 178.482 61.9091C176.311 62.9659 173.783 63.4943 170.896 63.4943C167.999 63.4943 165.464 62.9659 163.294 61.9091C161.124 60.8409 159.436 59.3523 158.232 57.4432C157.027 55.5341 156.425 53.3068 156.425 50.7614V28.0909H163.805V50.1307C163.805 51.4602 164.095 52.642 164.675 53.6761C165.266 54.7102 166.095 55.5227 167.163 56.1136C168.232 56.7045 169.476 57 170.896 57C172.328 57 173.572 56.7045 174.629 56.1136C175.697 55.5227 176.521 54.7102 177.101 53.6761C177.692 52.642 177.987 51.4602 177.987 50.1307V28.0909ZM191.44 63V28.0909H205.213C207.849 28.0909 210.099 28.5625 211.963 29.5057C213.838 30.4375 215.264 31.7614 216.241 33.4773C217.23 35.1818 217.724 37.1875 217.724 39.4943C217.724 41.8125 217.224 43.8068 216.224 45.4773C215.224 47.1364 213.776 48.4091 211.878 49.2955C209.991 50.1818 207.707 50.625 205.026 50.625H195.804V44.6932H203.832C205.241 44.6932 206.412 44.5 207.344 44.1136C208.276 43.7273 208.969 43.1477 209.423 42.375C209.889 41.6023 210.122 40.642 210.122 39.4943C210.122 38.3352 209.889 37.358 209.423 36.5625C208.969 35.767 208.27 35.1648 207.327 34.7557C206.395 34.3352 205.219 34.125 203.798 34.125H198.821V63H191.44ZM210.293 47.1136L218.969 63H210.821L202.332 47.1136H210.293ZM255.02 45.5455C255.02 49.3523 254.298 52.5909 252.855 55.2614C251.423 57.9318 249.469 59.9716 246.991 61.3807C244.526 62.7784 241.753 63.4773 238.673 63.4773C235.571 63.4773 232.787 62.7727 230.321 61.3636C227.855 59.9545 225.906 57.9148 224.474 55.2443C223.043 52.5739 222.327 49.3409 222.327 45.5455C222.327 41.7386 223.043 38.5 224.474 35.8295C225.906 33.1591 227.855 31.125 230.321 29.7273C232.787 28.3182 235.571 27.6136 238.673 27.6136C241.753 27.6136 244.526 28.3182 246.991 29.7273C249.469 31.125 251.423 33.1591 252.855 35.8295C254.298 38.5 255.02 41.7386 255.02 45.5455ZM247.537 45.5455C247.537 43.0795 247.168 41 246.429 39.3068C245.702 37.6136 244.673 36.3295 243.344 35.4545C242.014 34.5795 240.457 34.142 238.673 34.142C236.889 34.142 235.332 34.5795 234.003 35.4545C232.673 36.3295 231.639 37.6136 230.901 39.3068C230.173 41 229.81 43.0795 229.81 45.5455C229.81 48.0114 230.173 50.0909 230.901 51.7841C231.639 53.4773 232.673 54.7614 234.003 55.6364C235.332 56.5114 236.889 56.9489 238.673 56.9489C240.457 56.9489 242.014 56.5114 243.344 55.6364C244.673 54.7614 245.702 53.4773 246.429 51.7841C247.168 50.0909 247.537 48.0114 247.537 45.5455Z" fill="white"/>
<path d="M58.3333 21.6667C56.6667 20 51.6667 16.6667 45 16.6667C28.3333 16.6667 25 28.3334 25 40C25 51.6667 28.3333 63.3334 45 63.3334C51.6667 63.3334 56.6667 60 58.3333 58.3333M13.3333 31.6667H46.6667M13.3333 48.3334H46.6667" stroke="white" stroke-width="10"/>
<rect width="80" height="80" stroke="black"/>
</svg>
