<svg width="245" height="58" viewBox="0 0 245 58" fill="none" xmlns="http://www.w3.org/2000/svg">
<rect width="245" height="58" fill="#23292C"/>
<rect x="2" y="14" width="55" height="24" fill="#D9D9D9"/>
<rect x="3.25" y="15.25" width="52.5" height="21.5" stroke="#23292C" stroke-width="0.5"/>
<circle cx="29" cy="26" r="10" fill="#23292C"/>
<path d="M28.6364 33.4545V18.9091H29.5682V33.4545H28.6364ZM31.7727 23.2727C31.7045 22.697 31.428 22.25 30.9432 21.9318C30.4583 21.6136 29.8636 21.4545 29.1591 21.4545C28.6439 21.4545 28.1932 21.5379 27.8068 21.7045C27.4242 21.8712 27.125 22.1004 26.9091 22.392C26.697 22.6837 26.5909 23.0151 26.5909 23.3864C26.5909 23.697 26.6648 23.964 26.8125 24.1875C26.964 24.4072 27.1572 24.5909 27.392 24.7386C27.6269 24.8826 27.8731 25.0019 28.1307 25.0966C28.3883 25.1875 28.625 25.2614 28.8409 25.3182L30.0227 25.6364C30.3258 25.7159 30.6629 25.8258 31.0341 25.9659C31.4091 26.1061 31.767 26.2973 32.108 26.5398C32.4526 26.7784 32.7367 27.0852 32.9602 27.4602C33.1837 27.8352 33.2955 28.2955 33.2955 28.8409C33.2955 29.4697 33.1307 30.0379 32.8011 30.5455C32.4754 31.053 31.9981 31.4564 31.3693 31.7557C30.7443 32.0549 29.9848 32.2045 29.0909 32.2045C28.2576 32.2045 27.536 32.0701 26.9261 31.8011C26.3201 31.5322 25.8428 31.1572 25.4943 30.6761C25.1496 30.1951 24.9545 29.6364 24.9091 29H26.3636C26.4015 29.4394 26.5492 29.803 26.8068 30.0909C27.0682 30.375 27.3977 30.5871 27.7955 30.7273C28.197 30.8636 28.6288 30.9318 29.0909 30.9318C29.6288 30.9318 30.1117 30.8447 30.5398 30.6705C30.9678 30.4924 31.3068 30.2462 31.5568 29.9318C31.8068 29.6136 31.9318 29.2424 31.9318 28.8182C31.9318 28.4318 31.8239 28.1174 31.608 27.875C31.392 27.6326 31.108 27.4356 30.7557 27.2841C30.4034 27.1326 30.0227 27 29.6136 26.8864L28.1818 26.4773C27.2727 26.2159 26.553 25.8428 26.0227 25.358C25.4924 24.8731 25.2273 24.2386 25.2273 23.4545C25.2273 22.803 25.4034 22.2348 25.7557 21.75C26.1117 21.2614 26.589 20.8826 27.1875 20.6136C27.7898 20.3409 28.4621 20.2045 29.2045 20.2045C29.9545 20.2045 30.6212 20.339 31.2045 20.608C31.7879 20.8731 32.25 21.2367 32.5909 21.6989C32.9356 22.161 33.1174 22.6856 33.1364 23.2727H31.7727Z" fill="white"/>
<path d="M88.1788 12.222C88.5299 10.4417 88.3728 9.07996 87.7077 8.13675C87.0511 7.19354 85.9703 6.72194 84.4652 6.72194C83.3877 6.72194 82.3803 6.95774 81.443 7.42934C80.5164 7.88916 79.7098 8.52582 79.0231 9.33934C78.3472 10.1411 77.8508 11.0548 77.5337 12.0805C77.2569 12.9412 77.1696 13.684 77.2717 14.3089C77.3824 14.9337 77.6107 15.4584 77.9566 15.8829C78.3134 16.2955 78.7253 16.6433 79.1926 16.9263C79.662 17.1974 80.1235 17.4215 80.5769 17.5983L82.8628 18.5179C83.6037 18.8009 84.3381 19.1841 85.066 19.6675C85.794 20.1509 86.4112 20.7875 86.9177 21.5775C87.4242 22.3674 87.7276 23.346 87.828 24.5132C87.9284 25.6804 87.7238 27.0776 87.2141 28.7046C86.5628 30.7561 85.6095 32.5776 84.3541 34.1693C83.0986 35.761 81.6042 37.0166 79.8709 37.9362C78.1376 38.8559 76.2448 39.3157 74.1924 39.3157C72.2255 39.3157 70.6536 38.8853 69.4766 38.0247C68.3081 37.164 67.5638 35.9437 67.2434 34.3638C66.9254 32.7722 67.066 30.8858 67.6652 28.7046H71.6545C71.3087 30.0133 71.2699 31.1039 71.5381 31.9763C71.8172 32.837 72.3179 33.4796 73.0401 33.904C73.7645 34.3167 74.6356 34.523 75.6532 34.523C76.782 34.523 77.859 34.2813 78.8841 33.7979C79.9115 33.3027 80.8127 32.6189 81.5877 31.7464C82.365 30.8622 82.9355 29.8305 83.2991 28.6515C83.6423 27.5786 83.7002 26.7003 83.4726 26.0164C83.2535 25.3326 82.8322 24.7667 82.2086 24.3187C81.5936 23.8706 80.87 23.4757 80.0378 23.1338L77.2993 21.9665C75.4416 21.1766 74.1429 20.0153 73.403 18.4826C72.6632 16.9499 72.6813 14.922 73.4575 12.3989C74.1155 10.312 75.0988 8.49045 76.4073 6.93416C77.7158 5.37786 79.2054 4.16938 80.876 3.3087C82.5489 2.43623 84.2662 2 86.0278 2C87.8066 2 89.2363 2.43623 90.3169 3.3087C91.3976 4.18117 92.0898 5.38376 92.3936 6.91648C92.6973 8.44919 92.5666 10.2177 92.0014 12.222H88.1788Z" fill="white"/>
<path d="M88.819 38.7144L100.148 2.49518H109.512C111.548 2.49518 113.074 3.00805 114.091 4.03379C115.116 5.05953 115.686 6.45666 115.799 8.22518C115.92 9.99369 115.634 11.9921 114.94 14.2204C114.238 16.4488 113.271 18.4531 112.039 20.2334C110.818 22.0019 109.372 23.4049 107.702 24.4425C106.033 25.4682 104.186 25.9811 102.159 25.9811H95.707L97.15 21.3476H103.23C104.521 21.3476 105.667 21.041 106.665 20.4279C107.675 19.8031 108.535 18.9542 109.246 17.8813C109.959 16.7966 110.523 15.5763 110.938 14.2204C111.366 12.841 111.557 11.6266 111.511 10.5773C111.467 9.51619 111.135 8.68499 110.515 8.0837C109.904 7.4824 108.944 7.18175 107.636 7.18175H102.659L92.7827 38.7144H88.819Z" fill="white"/>
<path d="M140.232 20.9585C139.037 24.7667 137.511 28.0326 135.653 30.7561C133.804 33.4796 131.776 35.5723 129.571 37.0343C127.376 38.4845 125.167 39.2096 122.944 39.2096C120.626 39.2096 118.793 38.4491 117.444 36.9282C116.105 35.3955 115.352 33.2202 115.185 30.4024C115.019 27.5727 115.548 24.2008 116.772 20.2865C117.966 16.4783 119.488 13.2124 121.337 10.4889C123.198 7.75357 125.231 5.65493 127.436 4.19296C129.65 2.73099 131.877 2 134.118 2C136.418 2 138.233 2.76636 139.563 4.29907C140.904 5.81999 141.656 8.00116 141.819 10.8426C141.984 13.6722 141.455 17.0442 140.232 20.9585ZM136.5 20.2865C137.406 17.3979 137.831 14.9691 137.774 13.0002C137.727 11.0194 137.284 9.52209 136.444 8.50814C135.605 7.49419 134.454 6.98722 132.991 6.98722C131.435 6.98722 129.873 7.52956 128.304 8.61425C126.744 9.69894 125.286 11.2788 123.929 13.3539C122.572 15.4289 121.43 17.9638 120.503 20.9585C119.588 23.8471 119.16 26.2758 119.217 28.2448C119.274 30.2137 119.723 31.7052 120.562 32.7191C121.413 33.7213 122.569 34.2224 124.032 34.2224C125.579 34.2224 127.132 33.6859 128.69 32.613C130.258 31.5283 131.72 29.9543 133.074 27.8911C134.431 25.816 135.573 23.2811 136.5 20.2865Z" fill="white"/>
<path d="M147.051 7.19944L148.52 2.49518H168.852L167.382 7.19944H159.186L149.326 38.7144H145.375L155.235 7.19944H147.051Z" fill="white"/>
<path d="M162.015 38.7144L173.344 2.49518H182.965C184.829 2.49518 186.24 2.91963 187.197 3.76852C188.165 4.60561 188.724 5.74336 188.875 7.18175C189.028 8.60836 188.821 10.2177 188.254 12.0098C187.784 13.5189 187.185 14.7864 186.457 15.8121C185.738 16.8378 184.947 17.6632 184.083 18.288C183.218 18.9129 182.349 19.3668 181.473 19.6498L181.354 20.0035C182.198 20.0624 182.922 20.4515 183.528 21.1707C184.145 21.8781 184.524 22.8862 184.665 24.1949C184.807 25.5036 184.59 27.0952 184.016 28.9699C183.429 30.8209 182.587 32.4833 181.491 33.9571C180.406 35.4191 179.075 36.5804 177.499 37.4411C175.925 38.2899 174.12 38.7144 172.085 38.7144H162.015ZM167.445 34.0278H173.166C175.064 34.0278 176.581 33.5208 177.717 32.5069C178.861 31.493 179.678 30.2255 180.167 28.7046C180.516 27.561 180.628 26.5116 180.504 25.5566C180.388 24.6016 180.03 23.8412 179.429 23.2752C178.837 22.7093 178.01 22.4264 176.95 22.4264H171.088L167.445 34.0278ZM172.434 18.1642H177.731C178.621 18.1642 179.496 17.9284 180.356 17.4568C181.225 16.9852 181.999 16.3191 182.677 15.4584C183.365 14.5977 183.883 13.5897 184.234 12.4342C184.712 10.9251 184.727 9.66946 184.279 8.66731C183.841 7.65336 182.84 7.14638 181.275 7.14638H175.862L172.434 18.1642Z" fill="white"/>
<path d="M214.027 20.9585C212.833 24.7667 211.307 28.0326 209.449 30.7561C207.599 33.4796 205.572 35.5723 203.367 37.0343C201.172 38.4845 198.963 39.2096 196.74 39.2096C194.422 39.2096 192.589 38.4491 191.239 36.9282C189.901 35.3955 189.148 33.2202 188.98 30.4024C188.815 27.5727 189.344 24.2008 190.567 20.2865C191.762 16.4783 193.284 13.2124 195.133 10.4889C196.993 7.75357 199.026 5.65493 201.232 4.19296C203.446 2.73099 205.673 2 207.913 2C210.214 2 212.029 2.76636 213.359 4.29907C214.699 5.81999 215.451 8.00116 215.614 10.8426C215.78 13.6722 215.251 17.0442 214.027 20.9585ZM210.296 20.2865C211.202 17.3979 211.627 14.9691 211.569 13.0002C211.523 11.0194 211.08 9.52209 210.24 8.50814C209.4 7.49419 208.249 6.98722 206.787 6.98722C205.231 6.98722 203.668 7.52956 202.1 8.61425C200.54 9.69894 199.082 11.2788 197.725 13.3539C196.368 15.4289 195.226 17.9638 194.299 20.9585C193.384 23.8471 192.955 26.2758 193.013 28.2448C193.07 30.2137 193.518 31.7052 194.358 32.7191C195.209 33.7213 196.365 34.2224 197.827 34.2224C199.375 34.2224 200.928 33.6859 202.485 32.613C204.054 31.5283 205.515 29.9543 206.87 27.8911C208.227 25.816 209.369 23.2811 210.296 20.2865Z" fill="white"/>
<path d="M220.847 7.19944L222.316 2.49518H242.647L241.178 7.19944H232.981L223.121 38.7144H219.17L229.03 7.19944H220.847Z" fill="white"/>
<path d="M72.7652 49.0808C72.8502 48.6536 72.7719 48.3268 72.5302 48.1005C72.2914 47.8741 71.9185 47.761 71.4114 47.761C71.0484 47.761 70.7134 47.8175 70.4064 47.9307C70.1028 48.0411 69.843 48.1938 69.6268 48.389C69.414 48.5814 69.2638 48.8007 69.1761 49.0468C69.0989 49.2534 69.0833 49.4316 69.1294 49.5815C69.1783 49.7315 69.265 49.8574 69.3895 49.9592C69.5174 50.0583 69.6627 50.1417 69.8254 50.2096C69.9886 50.2747 70.1482 50.3285 70.3043 50.3709L71.0916 50.5916C71.3465 50.6595 71.601 50.7514 71.8553 50.8674C72.1096 50.9834 72.3294 51.1362 72.5148 51.3257C72.7001 51.5153 72.8206 51.7501 72.8762 52.0302C72.9318 52.3103 72.8889 52.6456 72.7475 53.036C72.5664 53.5283 72.2792 53.9654 71.8859 54.3473C71.4926 54.7293 71.0126 55.0306 70.4458 55.2513C69.8789 55.4719 69.2498 55.5823 68.5584 55.5823C67.8957 55.5823 67.3581 55.479 66.9455 55.2725C66.5358 55.0659 66.2622 54.7731 66.1248 54.394C65.988 54.0121 66.0002 53.5594 66.1614 53.036H67.5054C67.4133 53.35 67.4206 53.6117 67.5272 53.8211C67.6373 54.0276 67.818 54.1818 68.0692 54.2837C68.321 54.3827 68.6183 54.4322 68.9611 54.4322C69.3414 54.4322 69.6998 54.3742 70.0361 54.2582C70.373 54.1394 70.6639 53.9753 70.9087 53.7659C71.1541 53.5537 71.327 53.3062 71.4276 53.0233C71.5232 52.7658 71.5263 52.555 71.4369 52.3909C71.3503 52.2268 71.1978 52.091 70.9794 51.9835C70.7638 51.876 70.5126 51.7812 70.2259 51.6992L69.2815 51.4191C68.6409 51.2296 68.1817 50.9509 67.9039 50.5831C67.626 50.2153 67.5943 49.7287 67.8087 49.1232C67.9915 48.6225 68.2888 48.1853 68.7006 47.8119C69.1124 47.4384 69.5917 47.1484 70.1385 46.9419C70.6859 46.7325 71.2563 46.6279 71.8498 46.6279C72.4491 46.6279 72.9389 46.7325 73.3193 46.9419C73.6996 47.1513 73.9553 47.4398 74.0862 47.8076C74.2171 48.1754 74.206 48.5998 74.053 49.0808H72.7652Z" fill="white"/>
<path d="M77.8048 46.7467L74.6634 55.438H73.3712L76.5127 46.7467H77.8048Z" fill="white"/>
<path d="M79.2201 55.5695C78.5689 55.5695 78.0566 55.4323 77.683 55.1579C77.3128 54.8806 77.0909 54.4916 77.0173 53.9908C76.9442 53.4873 77.0303 52.8974 77.2756 52.2212C77.5164 51.5535 77.8558 50.965 78.2937 50.4558C78.7317 49.9465 79.2317 49.549 79.7937 49.2633C80.3587 48.9775 80.9494 48.8346 81.5659 48.8346C81.9405 48.8346 82.2817 48.8955 82.5896 49.0171C82.9004 49.1388 83.1475 49.3297 83.3308 49.59C83.5141 49.8503 83.6104 50.1884 83.6197 50.6043C83.6324 51.0174 83.5329 51.5195 83.3212 52.1108L83.1612 52.5607H77.8801L78.2143 51.6101H82.2247C82.3495 51.2762 82.3905 50.9806 82.3478 50.7231C82.3057 50.4628 82.1867 50.2577 81.9909 50.1078C81.7979 49.9578 81.5328 49.8829 81.1957 49.8829C80.85 49.8829 80.5102 49.972 80.1763 50.1502C79.8423 50.3285 79.5479 50.5562 79.2928 50.8335C79.0413 51.1079 78.8615 51.3908 78.7536 51.6822L78.4349 52.5522C78.2686 53.0275 78.2081 53.4094 78.2534 53.698C78.3016 53.9866 78.4428 54.196 78.6771 54.3261C78.9113 54.4563 79.2229 54.5213 79.6119 54.5213C79.8625 54.5213 80.101 54.4874 80.3273 54.4195C80.557 54.3487 80.7684 54.2455 80.9616 54.1097C81.1554 53.971 81.3283 53.7985 81.4804 53.5919L82.6229 53.8084C82.3964 54.162 82.1092 54.4718 81.7613 54.7378C81.4139 55.0009 81.0244 55.206 80.5928 55.3531C80.1645 55.4974 79.707 55.5695 79.2201 55.5695Z" fill="white"/>
<path d="M86.3864 55.5695C85.7353 55.5695 85.2229 55.4323 84.8493 55.1579C84.4791 54.8806 84.2572 54.4916 84.1836 53.9908C84.1105 53.4873 84.1966 52.8974 84.4419 52.2212C84.6827 51.5535 85.0221 50.965 85.4601 50.4558C85.898 49.9465 86.398 49.549 86.96 49.2633C87.525 48.9775 88.1157 48.8346 88.7323 48.8346C89.1068 48.8346 89.448 48.8955 89.756 49.0171C90.0668 49.1388 90.3138 49.3297 90.4971 49.59C90.6804 49.8503 90.7767 50.1884 90.786 50.6043C90.7987 51.0174 90.6992 51.5195 90.4875 52.1108L90.3275 52.5607H85.0465L85.3806 51.6101H89.3911C89.5158 51.2762 89.5568 50.9806 89.5142 50.7231C89.4721 50.4628 89.3531 50.2577 89.1572 50.1078C88.9642 49.9578 88.6991 49.8829 88.3621 49.8829C88.0163 49.8829 87.6765 49.972 87.3426 50.1502C87.0087 50.3285 86.7142 50.5562 86.4592 50.8335C86.2076 51.1079 86.0278 51.3908 85.9199 51.6822L85.6013 52.5522C85.4349 53.0275 85.3744 53.4094 85.4197 53.698C85.4679 53.9866 85.6091 54.196 85.8434 54.3261C86.0777 54.4563 86.3893 54.5213 86.7782 54.5213C87.0289 54.5213 87.2673 54.4874 87.4936 54.4195C87.7233 54.3487 87.9347 54.2455 88.128 54.1097C88.3217 53.971 88.4947 53.7985 88.6468 53.5919L89.7892 53.8084C89.5628 54.162 89.2755 54.4718 88.9276 54.7378C88.5803 55.0009 88.1907 55.206 87.7591 55.3531C87.3309 55.4974 86.8733 55.5695 86.3864 55.5695Z" fill="white"/>
<path d="M89.8536 57.8824L93.1078 48.9195H94.3697L93.9892 49.9762H94.0972C94.2213 49.8404 94.3841 49.6834 94.5855 49.5052C94.7897 49.3269 95.043 49.1713 95.3451 49.0383C95.6478 48.9025 96.0052 48.8346 96.4172 48.8346C96.9531 48.8346 97.3812 48.9676 97.7017 49.2336C98.0222 49.4995 98.2135 49.8829 98.2757 50.3836C98.3378 50.8844 98.242 51.487 97.9883 52.1915C97.7347 52.8959 97.3966 53.5 96.9742 54.0036C96.5523 54.5043 96.0833 54.8905 95.5672 55.1621C95.0545 55.4309 94.5288 55.5653 93.99 55.5653C93.5867 55.5653 93.2811 55.4988 93.0733 55.3658C92.8684 55.2329 92.7269 55.0773 92.6488 54.899C92.5708 54.7208 92.5163 54.5623 92.4853 54.4237H92.4075L91.1544 57.8824H89.8536ZM93.1938 52.1787C93.0307 52.6371 92.9534 53.0388 92.9619 53.384C92.9704 53.7291 93.0683 53.9993 93.2554 54.1946C93.446 54.3869 93.7272 54.4831 94.0988 54.4831C94.4849 54.4831 94.8427 54.3827 95.1724 54.1818C95.5025 53.9781 95.7962 53.7023 96.0533 53.3543C96.3133 53.0063 96.5226 52.6144 96.6813 52.1787C96.8361 51.7487 96.909 51.3625 96.8999 51.0202C96.8938 50.6779 96.7974 50.4077 96.6107 50.2096C96.4241 50.0116 96.1363 49.9126 95.7474 49.9126C95.37 49.9126 95.0175 50.0073 94.6901 50.1969C94.3655 50.3865 94.0755 50.651 93.82 50.9905C93.5645 51.33 93.3558 51.7261 93.1938 52.1787Z" fill="white"/>
<path d="M103.315 55.438L104.001 46.7467H105.406L104.699 53.4773H104.781L109.006 46.7467H110.397L109.759 53.4816H109.845L113.993 46.7467H115.402L109.801 55.438H108.457L108.954 48.928H108.884L104.663 55.438H103.315Z" fill="white"/>
<path d="M115.539 55.5695C114.888 55.5695 114.375 55.4323 114.002 55.1579C113.632 54.8806 113.41 54.4916 113.336 53.9908C113.263 53.4873 113.349 52.8974 113.594 52.2212C113.835 51.5535 114.175 50.965 114.613 50.4558C115.051 49.9465 115.551 49.549 116.113 49.2633C116.678 48.9775 117.268 48.8346 117.885 48.8346C118.259 48.8346 118.601 48.8955 118.909 49.0171C119.219 49.1388 119.466 49.3297 119.65 49.59C119.833 49.8503 119.929 50.1884 119.939 50.6043C119.951 51.0174 119.852 51.5195 119.64 52.1108L119.48 52.5607H114.199L114.533 51.6101H118.544C118.668 51.2762 118.709 50.9806 118.667 50.7231C118.625 50.4628 118.506 50.2577 118.31 50.1078C118.117 49.9578 117.852 49.8829 117.515 49.8829C117.169 49.8829 116.829 49.972 116.495 50.1502C116.161 50.3285 115.867 50.5562 115.612 50.8335C115.36 51.1079 115.18 51.3908 115.072 51.6822L114.754 52.5522C114.587 53.0275 114.527 53.4094 114.572 53.698C114.62 53.9866 114.762 54.196 114.996 54.3261C115.23 54.4563 115.542 54.5213 115.931 54.5213C116.181 54.5213 116.42 54.4874 116.646 54.4195C116.876 54.3487 117.087 54.2455 117.281 54.1097C117.474 53.971 117.647 53.7985 117.799 53.5919L118.942 53.8084C118.715 54.162 118.428 54.4718 118.08 54.7378C117.733 55.0009 117.343 55.206 116.912 55.3531C116.483 55.4974 116.026 55.5695 115.539 55.5695Z" fill="white"/>
<path d="M124.321 46.7467L121.179 55.438H119.887L123.028 46.7467H124.321Z" fill="white"/>
<path d="M127.351 46.7467L124.21 55.438H122.917L126.059 46.7467H127.351Z" fill="white"/>
</svg>
