<svg width="30" height="29" viewBox="0 0 30 29" fill="none" xmlns="http://www.w3.org/2000/svg">
<path d="M20.595 6.393V1.437C20.595 0.645 19.947 0 19.158 0H1.437C0.648 0 0 0.645 0 1.437V21.741C0 22.266 0.312 22.77 0.765 23.01L11.685 28.662C12.165 28.899 12.738 28.566 12.738 28.014V22.509H19.155C19.947 22.509 20.592 21.861 20.592 21.072V13.218H17.718V18.918C17.718 19.326 17.409 19.638 17.001 19.638H12.765V7.446C12.765 6.921 12.453 6.417 11.997 6.177L5.556 2.871H17.004C17.412 2.871 17.721 3.183 17.721 3.591V6.417H20.595V6.393Z" fill="white"/>
<path d="M24.2822 4.04398L28.9532 8.71498C29.5502 9.31498 29.5502 10.2 28.9532 10.797L24.2822 15.468C23.6822 16.065 22.7732 16.089 22.1732 15.492C21.6002 14.916 21.6692 13.959 22.2212 13.383L24.3272 11.301H16.1642C15.7562 11.301 15.3482 11.133 15.0872 10.821C14.4152 10.104 14.5832 8.83198 15.4472 8.35498C15.6632 8.23498 15.9272 8.16298 16.1672 8.16298H24.3302C24.3302 8.16298 22.2482 6.07798 22.2242 6.07798C21.6722 5.52898 21.6032 4.54498 22.1762 3.99598C22.7492 3.42298 23.6822 3.44698 24.2822 4.04398Z" fill="white"/>
</svg>
