<svg width="289" height="80" viewBox="0 0 289 80" fill="none" xmlns="http://www.w3.org/2000/svg">
<path d="M125.705 34.1761V28.0909H154.375V34.1761H143.688V63H136.392V34.1761H125.705ZM180.659 28.0909H188.04V50.7614C188.04 53.3068 187.432 55.5341 186.216 57.4432C185.011 59.3523 183.324 60.8409 181.153 61.9091C178.983 62.9659 176.455 63.4943 173.568 63.4943C170.67 63.4943 168.136 62.9659 165.966 61.9091C163.795 60.8409 162.108 59.3523 160.903 57.4432C159.699 55.5341 159.097 53.3068 159.097 50.7614V28.0909H166.477V50.1307C166.477 51.4602 166.767 52.642 167.347 53.6761C167.938 54.7102 168.767 55.5227 169.835 56.1136C170.903 56.7045 172.148 57 173.568 57C175 57 176.244 56.7045 177.301 56.1136C178.369 55.5227 179.193 54.7102 179.773 53.6761C180.364 52.642 180.659 51.4602 180.659 50.1307V28.0909ZM213.05 38.1307C212.913 36.7557 212.328 35.6875 211.294 34.9261C210.26 34.1648 208.857 33.7841 207.084 33.7841C205.879 33.7841 204.862 33.9545 204.033 34.2955C203.203 34.625 202.567 35.0852 202.124 35.6761C201.692 36.267 201.476 36.9375 201.476 37.6875C201.453 38.3125 201.584 38.858 201.868 39.3239C202.163 39.7898 202.567 40.1932 203.078 40.5341C203.589 40.8636 204.18 41.1534 204.851 41.4034C205.521 41.642 206.237 41.8466 206.999 42.017L210.135 42.767C211.658 43.108 213.055 43.5625 214.328 44.1307C215.601 44.6989 216.703 45.3977 217.635 46.2273C218.567 47.0568 219.288 48.0341 219.8 49.1591C220.322 50.2841 220.589 51.5739 220.601 53.0284C220.589 55.1648 220.044 57.017 218.964 58.5852C217.896 60.142 216.351 61.3523 214.328 62.2159C212.317 63.0682 209.891 63.4943 207.05 63.4943C204.232 63.4943 201.777 63.0625 199.686 62.1989C197.607 61.3352 195.982 60.0568 194.811 58.3636C193.652 56.6591 193.044 54.5511 192.987 52.0398H200.129C200.209 53.2102 200.544 54.1875 201.135 54.9716C201.737 55.7443 202.538 56.3295 203.538 56.7273C204.55 57.1136 205.692 57.3068 206.964 57.3068C208.214 57.3068 209.3 57.125 210.22 56.7614C211.152 56.3977 211.874 55.892 212.385 55.2443C212.896 54.5966 213.152 53.8523 213.152 53.0114C213.152 52.2273 212.919 51.5682 212.453 51.0341C211.999 50.5 211.328 50.0455 210.442 49.6705C209.567 49.2955 208.493 48.9545 207.22 48.6477L203.419 47.6932C200.476 46.9773 198.152 45.858 196.447 44.3352C194.743 42.8125 193.896 40.7614 193.908 38.1818C193.896 36.0682 194.459 34.2216 195.595 32.642C196.743 31.0625 198.317 29.8295 200.317 28.9432C202.317 28.0568 204.589 27.6136 207.135 27.6136C209.726 27.6136 211.987 28.0568 213.919 28.9432C215.862 29.8295 217.374 31.0625 218.453 32.642C219.533 34.2216 220.089 36.0511 220.124 38.1307H213.05ZM237.94 63H225.565V28.0909H238.043C241.554 28.0909 244.577 28.7898 247.111 30.1875C249.645 31.5739 251.594 33.5682 252.957 36.1705C254.332 38.7727 255.02 41.8864 255.02 45.5114C255.02 49.1477 254.332 52.2727 252.957 54.8864C251.594 57.5 249.634 59.5057 247.077 60.9034C244.531 62.3011 241.486 63 237.94 63ZM232.946 56.6761H237.634C239.815 56.6761 241.651 56.2898 243.139 55.517C244.639 54.733 245.764 53.5227 246.514 51.8864C247.276 50.2386 247.656 48.1136 247.656 45.5114C247.656 42.9318 247.276 40.8239 246.514 39.1875C245.764 37.5511 244.645 36.3466 243.156 35.5739C241.668 34.8011 239.832 34.4148 237.651 34.4148H232.946V56.6761Z" fill="white"/>
<path d="M40 80C18 80 0 62 0 40C0 18 18 0 40 0C62 0 80 18 80 40C80 62 62 80 40 80Z" fill="white"/>
<path d="M60.16 64H19.84C17.728 64 16 62.272 16 60.16V19.84C16 17.728 17.728 16 19.84 16H60.16C62.272 16 64 17.728 64 19.84V60.16C64 62.272 62.272 64 60.16 64Z" fill="#002868"/>
<path d="M25.3664 59.168C25.24 59.168 25.1376 59.0528 25.1376 58.9264V52.4768C25.1376 52.3504 25.0352 52.2352 24.9088 52.2352H22.632C22.504 52.2352 22.3904 52.1328 22.3904 52.0064V50.76C22.3904 50.6336 22.5056 50.5184 22.632 50.5184H29.64C29.7664 50.5184 29.8816 50.632 29.8816 50.76V52.0064C29.8816 52.1328 29.7664 52.2352 29.64 52.2352H27.376C27.2496 52.2352 27.1344 52.3488 27.1344 52.4768V58.9264C27.1344 59.0528 27.032 59.168 26.9056 59.168H25.3664Z" fill="white"/>
<path d="M36.8768 50.76C36.8768 50.6336 36.9792 50.5184 37.1056 50.5184H38.632C38.7584 50.5184 38.8736 50.632 38.8736 50.76V55.1616C38.8736 57.7696 37.3984 59.2832 35.0576 59.2832C32.7296 59.2832 31.2672 57.7696 31.2672 55.1616V50.76C31.2672 50.6336 31.3696 50.5184 31.496 50.5184H33.0224C33.1488 50.5184 33.264 50.632 33.264 50.76V55.224C33.264 56.5088 33.9248 57.424 35.0704 57.424C36.216 57.424 36.8768 56.5088 36.8768 55.224V50.76Z" fill="white"/>
<path d="M45.8832 53.3424C45.68 53.3424 45.616 53.2656 45.5392 53.1136C45.272 52.4896 44.6864 52.096 43.7968 52.096C42.9952 52.096 42.3216 52.376 42.3216 52.9104C42.3216 53.496 42.9456 53.7376 44.3184 53.9024C46.4048 54.144 47.6 54.7808 47.6 56.4336C47.6 58.2912 45.9712 59.2704 43.8864 59.2704C42.08 59.2704 40.528 58.392 40.2864 56.5488C40.2608 56.3712 40.3504 56.3072 40.528 56.3072H41.928C42.1056 56.3072 42.208 56.384 42.2592 56.5232C42.4496 57.1344 43.0992 57.6048 44.04 57.6048C44.8672 57.6048 45.592 57.2992 45.592 56.6512C45.592 55.8752 44.8288 55.736 43.3024 55.544C41.5472 55.3152 40.3264 54.8064 40.3264 53.1904C40.3264 51.5744 41.7136 50.4176 43.888 50.4176C45.8464 50.4176 47.208 51.4736 47.488 53.0512C47.5264 53.2288 47.4752 53.344 47.2848 53.344H45.8832V53.3424Z" fill="white"/>
<path d="M49.3296 59.168C49.2032 59.168 49.1008 59.0528 49.1008 58.9264V50.76C49.1008 50.6336 49.2032 50.5184 49.3296 50.5184H52.7888C55.3584 50.5184 57.3552 52.2864 57.3552 54.8688C57.3552 57.4128 55.384 59.168 52.7888 59.168H49.3296ZM52.7888 57.4496C54.176 57.4496 55.256 56.3552 55.256 54.8416C55.256 53.328 54.1744 52.2336 52.776 52.2336H51.3392C51.2128 52.2336 51.1104 52.3472 51.1104 52.4752V57.2192C51.1104 57.3456 51.2128 57.448 51.3392 57.448H52.7888V57.4496Z" fill="white"/>
<path d="M62.72 45.76H17.28C16.928 45.76 16.64 45.472 16.64 45.12V19.84C16.64 18.08 18.08 16.64 19.84 16.64H60.16C61.92 16.64 63.36 18.08 63.36 19.84V45.12C63.36 45.472 63.072 45.76 62.72 45.76Z" fill="white"/>
<path d="M42.3568 40.5696H38.1968C37.9328 40.5696 37.7168 40.3536 37.7168 40.0896V22.4896C37.7168 22.2256 37.9328 22.0096 38.1968 22.0096H42.3568C42.6208 22.0096 42.8368 22.2256 42.8368 22.4896V40.0896C42.8368 40.3536 42.6208 40.5696 42.3568 40.5696Z" fill="#002868"/>
<path d="M49.44 27.1296H30.56C30.296 27.1296 30.08 26.9136 30.08 26.6496V22.4896C30.08 22.2256 30.296 22.0096 30.56 22.0096H49.44C49.704 22.0096 49.92 22.2256 49.92 22.4896V26.6496C49.92 26.9136 49.704 27.1296 49.44 27.1296Z" fill="#002868"/>
</svg>
