<svg width="289" height="80" viewBox="0 0 289 80" fill="none" xmlns="http://www.w3.org/2000/svg">
<path d="M148.597 28.0909H155.977V50.7614C155.977 53.3068 155.369 55.5341 154.153 57.4432C152.949 59.3523 151.261 60.8409 149.091 61.9091C146.92 62.9659 144.392 63.4943 141.506 63.4943C138.608 63.4943 136.074 62.9659 133.903 61.9091C131.733 60.8409 130.045 59.3523 128.841 57.4432C127.636 55.5341 127.034 53.3068 127.034 50.7614V28.0909H134.415V50.1307C134.415 51.4602 134.705 52.642 135.284 53.6761C135.875 54.7102 136.705 55.5227 137.773 56.1136C138.841 56.7045 140.085 57 141.506 57C142.938 57 144.182 56.7045 145.239 56.1136C146.307 55.5227 147.131 54.7102 147.71 53.6761C148.301 52.642 148.597 51.4602 148.597 50.1307V28.0909ZM180.987 38.1307C180.851 36.7557 180.266 35.6875 179.232 34.9261C178.197 34.1648 176.794 33.7841 175.021 33.7841C173.817 33.7841 172.8 33.9545 171.97 34.2955C171.141 34.625 170.504 35.0852 170.061 35.6761C169.629 36.267 169.413 36.9375 169.413 37.6875C169.391 38.3125 169.521 38.858 169.805 39.3239C170.101 39.7898 170.504 40.1932 171.016 40.5341C171.527 40.8636 172.118 41.1534 172.788 41.4034C173.459 41.642 174.175 41.8466 174.936 42.017L178.072 42.767C179.595 43.108 180.993 43.5625 182.266 44.1307C183.538 44.6989 184.641 45.3977 185.572 46.2273C186.504 47.0568 187.226 48.0341 187.737 49.1591C188.26 50.2841 188.527 51.5739 188.538 53.0284C188.527 55.1648 187.982 57.017 186.902 58.5852C185.834 60.142 184.288 61.3523 182.266 62.2159C180.254 63.0682 177.828 63.4943 174.987 63.4943C172.169 63.4943 169.714 63.0625 167.624 62.1989C165.544 61.3352 163.919 60.0568 162.749 58.3636C161.589 56.6591 160.982 54.5511 160.925 52.0398H168.067C168.146 53.2102 168.482 54.1875 169.072 54.9716C169.675 55.7443 170.476 56.3295 171.476 56.7273C172.487 57.1136 173.629 57.3068 174.902 57.3068C176.152 57.3068 177.237 57.125 178.158 56.7614C179.089 56.3977 179.811 55.892 180.322 55.2443C180.834 54.5966 181.089 53.8523 181.089 53.0114C181.089 52.2273 180.857 51.5682 180.391 51.0341C179.936 50.5 179.266 50.0455 178.379 49.6705C177.504 49.2955 176.43 48.9545 175.158 48.6477L171.357 47.6932C168.413 46.9773 166.089 45.858 164.385 44.3352C162.68 42.8125 161.834 40.7614 161.845 38.1818C161.834 36.0682 162.396 34.2216 163.533 32.642C164.68 31.0625 166.254 29.8295 168.254 28.9432C170.254 28.0568 172.527 27.6136 175.072 27.6136C177.663 27.6136 179.925 28.0568 181.857 28.9432C183.8 29.8295 185.311 31.0625 186.391 32.642C187.47 34.2216 188.027 36.0511 188.061 38.1307H180.987ZM205.878 63H193.503V28.0909H205.98C209.491 28.0909 212.514 28.7898 215.048 30.1875C217.582 31.5739 219.531 33.5682 220.895 36.1705C222.27 38.7727 222.957 41.8864 222.957 45.5114C222.957 49.1477 222.27 52.2727 220.895 54.8864C219.531 57.5 217.571 59.5057 215.014 60.9034C212.469 62.3011 209.423 63 205.878 63ZM200.884 56.6761H205.571C207.753 56.6761 209.588 56.2898 211.077 55.517C212.577 54.733 213.702 53.5227 214.452 51.8864C215.213 50.2386 215.594 48.1136 215.594 45.5114C215.594 42.9318 215.213 40.8239 214.452 39.1875C213.702 37.5511 212.582 36.3466 211.094 35.5739C209.605 34.8011 207.77 34.4148 205.588 34.4148H200.884V56.6761ZM259.226 40.3125H251.76C251.624 39.3466 251.345 38.4886 250.925 37.7386C250.504 36.9773 249.964 36.3295 249.305 35.7955C248.646 35.2614 247.885 34.8523 247.021 34.5682C246.169 34.2841 245.243 34.142 244.243 34.142C242.436 34.142 240.862 34.5909 239.521 35.4886C238.18 36.375 237.141 37.6705 236.402 39.375C235.663 41.0682 235.294 43.125 235.294 45.5455C235.294 48.0341 235.663 50.125 236.402 51.8182C237.152 53.5114 238.197 54.7898 239.538 55.6534C240.879 56.517 242.43 56.9489 244.192 56.9489C245.18 56.9489 246.095 56.8182 246.936 56.5568C247.788 56.2955 248.544 55.9148 249.203 55.4148C249.862 54.9034 250.408 54.2841 250.839 53.5568C251.283 52.8295 251.589 52 251.76 51.0682L259.226 51.1023C259.033 52.7045 258.55 54.25 257.777 55.7386C257.016 57.2159 255.987 58.5398 254.692 59.7102C253.408 60.8693 251.874 61.7898 250.089 62.4716C248.317 63.142 246.311 63.4773 244.072 63.4773C240.959 63.4773 238.175 62.7727 235.72 61.3636C233.277 59.9545 231.345 57.9148 229.925 55.2443C228.516 52.5739 227.811 49.3409 227.811 45.5455C227.811 41.7386 228.527 38.5 229.959 35.8295C231.391 33.1591 233.334 31.125 235.788 29.7273C238.243 28.3182 241.004 27.6136 244.072 27.6136C246.095 27.6136 247.97 27.8977 249.697 28.4659C251.436 29.0341 252.976 29.8636 254.317 30.9545C255.658 32.0341 256.749 33.358 257.589 34.9261C258.442 36.4943 258.987 38.2898 259.226 40.3125Z" fill="white"/>
<path d="M40 80C62.1668 80 80 62.1668 80 40C80 17.8332 62.1668 0 40 0C17.8332 0 0 17.8332 0 40C0 62.1668 17.8332 80 40 80Z" fill="#2775CA"/>
<path d="M51 46.3332C51 40.5 47.5 38.5 40.5 37.6668C35.5 37 34.5 35.6668 34.5 33.3332C34.5 30.9996 36.1668 29.5 39.5 29.5C42.5 29.5 44.1668 30.5 45 33C45.1668 33.5 45.6668 33.8332 46.1668 33.8332H48.8332C49.5 33.8332 50 33.3332 50 32.6668V32.5C49.3332 28.8332 46.3332 26 42.5 25.6668V21.6668C42.5 21 42 20.5 41.1668 20.3332H38.6668C38 20.3332 37.5 20.8332 37.3332 21.6668V25.5C32.3332 26.1668 29.1668 29.5 29.1668 33.6668C29.1668 39.1668 32.5 41.3332 39.5 42.1668C44.1668 43 45.6668 44 45.6668 46.6668C45.6668 49.3336 43.3332 51.1668 40.1668 51.1668C35.8332 51.1668 34.3332 49.3332 33.8332 46.8332C33.6668 46.1668 33.1668 45.8332 32.6668 45.8332H29.8332C29.1668 45.8332 28.6668 46.3332 28.6668 47V47.1668C29.3332 51.3332 32 54.3332 37.5 55.1668V59.1668C37.5 59.8332 38 60.3332 38.8332 60.5H41.3332C42 60.5 42.5 60 42.6668 59.1668V55.1668C47.6668 54.3332 51 50.8332 51 46.3332Z" fill="white"/>
<path d="M31.5 63.8332C18.5 59.1668 11.8332 44.6668 16.6668 31.8332C19.1668 24.8332 24.6668 19.5 31.5 17C32.1668 16.6668 32.5 16.1668 32.5 15.3332V13C32.5 12.3332 32.1668 11.8332 31.5 11.6668C31.3332 11.6668 31 11.6668 30.8332 11.8332C15 16.8332 6.3332 33.6668 11.3332 49.5C14.3332 58.8332 21.5 66 30.8332 69C31.5 69.3332 32.1668 69 32.3332 68.3332C32.5 68.1668 32.5 68 32.5 67.6668V65.3332C32.5 64.8332 32 64.1668 31.5 63.8332ZM49.1668 11.8332C48.5 11.5 47.8332 11.8332 47.6668 12.5C47.5 12.6668 47.5 12.8332 47.5 13.1668V15.5C47.5 16.1668 48 16.8332 48.5 17.1668C61.5 21.8332 68.1668 36.3332 63.3332 49.1668C60.8332 56.1668 55.3332 61.5 48.5 64C47.8332 64.3332 47.5 64.8332 47.5 65.6668V68C47.5 68.6668 47.8332 69.1668 48.5 69.3332C48.6668 69.3332 49 69.3332 49.1668 69.1668C65 64.1668 73.6668 47.3332 68.6668 31.5C65.6668 22 58.3332 14.8332 49.1668 11.8332Z" fill="white"/>
</svg>
