<svg width="301" height="80" viewBox="0 0 301 80" fill="none" xmlns="http://www.w3.org/2000/svg">
<path d="M160.597 28.0909H167.977V50.7614C167.977 53.3068 167.369 55.5341 166.153 57.4432C164.949 59.3523 163.261 60.8409 161.091 61.9091C158.92 62.9659 156.392 63.4943 153.506 63.4943C150.608 63.4943 148.074 62.9659 145.903 61.9091C143.733 60.8409 142.045 59.3523 140.841 57.4432C139.636 55.5341 139.034 53.3068 139.034 50.7614V28.0909H146.415V50.1307C146.415 51.4602 146.705 52.642 147.284 53.6761C147.875 54.7102 148.705 55.5227 149.773 56.1136C150.841 56.7045 152.085 57 153.506 57C154.938 57 156.182 56.7045 157.239 56.1136C158.307 55.5227 159.131 54.7102 159.71 53.6761C160.301 52.642 160.597 51.4602 160.597 50.1307V28.0909ZM192.987 38.1307C192.851 36.7557 192.266 35.6875 191.232 34.9261C190.197 34.1648 188.794 33.7841 187.021 33.7841C185.817 33.7841 184.8 33.9545 183.97 34.2955C183.141 34.625 182.504 35.0852 182.061 35.6761C181.629 36.267 181.413 36.9375 181.413 37.6875C181.391 38.3125 181.521 38.858 181.805 39.3239C182.101 39.7898 182.504 40.1932 183.016 40.5341C183.527 40.8636 184.118 41.1534 184.788 41.4034C185.459 41.642 186.175 41.8466 186.936 42.017L190.072 42.767C191.595 43.108 192.993 43.5625 194.266 44.1307C195.538 44.6989 196.641 45.3977 197.572 46.2273C198.504 47.0568 199.226 48.0341 199.737 49.1591C200.26 50.2841 200.527 51.5739 200.538 53.0284C200.527 55.1648 199.982 57.017 198.902 58.5852C197.834 60.142 196.288 61.3523 194.266 62.2159C192.254 63.0682 189.828 63.4943 186.987 63.4943C184.169 63.4943 181.714 63.0625 179.624 62.1989C177.544 61.3352 175.919 60.0568 174.749 58.3636C173.589 56.6591 172.982 54.5511 172.925 52.0398H180.067C180.146 53.2102 180.482 54.1875 181.072 54.9716C181.675 55.7443 182.476 56.3295 183.476 56.7273C184.487 57.1136 185.629 57.3068 186.902 57.3068C188.152 57.3068 189.237 57.125 190.158 56.7614C191.089 56.3977 191.811 55.892 192.322 55.2443C192.834 54.5966 193.089 53.8523 193.089 53.0114C193.089 52.2273 192.857 51.5682 192.391 51.0341C191.936 50.5 191.266 50.0455 190.379 49.6705C189.504 49.2955 188.43 48.9545 187.158 48.6477L183.357 47.6932C180.413 46.9773 178.089 45.858 176.385 44.3352C174.68 42.8125 173.834 40.7614 173.845 38.1818C173.834 36.0682 174.396 34.2216 175.533 32.642C176.68 31.0625 178.254 29.8295 180.254 28.9432C182.254 28.0568 184.527 27.6136 187.072 27.6136C189.663 27.6136 191.925 28.0568 193.857 28.9432C195.8 29.8295 197.311 31.0625 198.391 32.642C199.47 34.2216 200.027 36.0511 200.061 38.1307H192.987ZM217.878 63H205.503V28.0909H217.98C221.491 28.0909 224.514 28.7898 227.048 30.1875C229.582 31.5739 231.531 33.5682 232.895 36.1705C234.27 38.7727 234.957 41.8864 234.957 45.5114C234.957 49.1477 234.27 52.2727 232.895 54.8864C231.531 57.5 229.571 59.5057 227.014 60.9034C224.469 62.3011 221.423 63 217.878 63ZM212.884 56.6761H217.571C219.753 56.6761 221.588 56.2898 223.077 55.517C224.577 54.733 225.702 53.5227 226.452 51.8864C227.213 50.2386 227.594 48.1136 227.594 45.5114C227.594 42.9318 227.213 40.8239 226.452 39.1875C225.702 37.5511 224.582 36.3466 223.094 35.5739C221.605 34.8011 219.77 34.4148 217.588 34.4148H212.884V56.6761ZM237.501 34.1761V28.0909H266.172V34.1761H255.484V63H248.189V34.1761H237.501Z" fill="white"/>
<g clip-path="url(#clip0_11_1380)">
<path fill-rule="evenodd" clip-rule="evenodd" d="M16.9014 0.392852L0.0704775 35.6149C0.00643094 35.7459 -0.013865 35.8938 0.0125577 36.0372C0.0389805 36.1805 0.110736 36.3116 0.21733 36.4114L45.6736 79.8076C45.8027 79.931 45.9747 79.9999 46.1536 79.9999C46.3325 79.9999 46.5045 79.931 46.6336 79.8076L92.0899 36.4141C92.1965 36.3143 92.2682 36.1832 92.2947 36.0399C92.3211 35.8966 92.3008 35.7486 92.2368 35.6176L75.4058 0.395562C75.3515 0.277271 75.2642 0.177064 75.1542 0.106917C75.0442 0.0367694 74.9163 -0.000351207 74.7858 -8.60214e-06H17.5269C17.3957 -0.00163467 17.2668 0.0345918 17.1559 0.104301C17.0449 0.17401 16.9565 0.274223 16.9014 0.392852Z" fill="#50AF95"/>
<path fill-rule="evenodd" clip-rule="evenodd" d="M51.9939 39.2319C51.6676 39.2563 49.9815 39.3565 46.2204 39.3565C43.229 39.3565 41.1051 39.2671 40.3599 39.2319C28.7994 38.7252 20.1704 36.7203 20.1704 34.3198C20.1704 31.9193 28.7994 29.917 40.3599 29.4022V37.2351C41.116 37.2892 43.2807 37.4166 46.2721 37.4166C49.8618 37.4166 51.6594 37.2676 51.983 37.2378V29.4076C63.5191 29.9197 72.129 31.9247 72.129 34.3198C72.129 36.7149 63.5218 38.7198 51.983 39.2292L51.9939 39.2319ZM51.9939 28.5975V21.5884H68.0933V10.8998H24.2606V21.5884H40.3572V28.5948C27.2737 29.1936 17.4346 31.7757 17.4346 34.8698C17.4346 37.9639 27.2737 40.5432 40.3572 41.1447V63.6055H51.9912V41.1366C65.0448 40.5378 74.8676 37.9585 74.8676 34.8671C74.8676 31.7757 65.0529 29.1963 51.9912 28.5948L51.9939 28.5975Z" fill="white"/>
</g>
<defs>
<clipPath id="clip0_11_1380">
<rect width="92.3077" height="80" fill="white"/>
</clipPath>
</defs>
</svg>
