<svg width="289" height="80" viewBox="0 0 289 80" fill="none" xmlns="http://www.w3.org/2000/svg">
<path d="M124.989 28.0909H133.256L141.216 43.125H141.557L149.517 28.0909H157.784L145.051 50.6591V63H137.722V50.6591L124.989 28.0909ZM161.815 63V28.0909H185.338V34.1761H169.196V42.4943H184.128V48.5795H169.196V56.9148H185.406V63H161.815ZM220.405 28.0909V63H214.03L198.842 41.0284H198.587V63H191.206V28.0909H197.683L212.751 50.0455H213.058V28.0909H220.405Z" fill="white"/>
<mask id="mask0_11_1384" style="mask-type:alpha" maskUnits="userSpaceOnUse" x="16" y="10" width="48" height="60">
<rect x="16.6667" y="10" width="46.6667" height="60" fill="white"/>
</mask>
<g mask="url(#mask0_11_1384)">
<path d="M20 3.33331L40 40M40 40L60 3.33331M40 40V55M40 70V55M40 55H20M40 55H60M20 38.3333H60" stroke="white" stroke-width="10"/>
</g>
</svg>
